<mxfile host="app.diagrams.net" modified="2023-12-11T07:52:52.112Z" agent="Mozilla/5.0 (Windows NT 10.0; Win64; x64) AppleWebKit/537.36 (KHTML, like Gecko) Chrome/120.0.0.0 Safari/537.36" version="22.1.7" etag="Lx6DJKmF2PivnmmhOPck" type="github">
  <diagram name="Сторінка-1" id="EMtOKMwm6JC6M3EizsJ8">
    <mxGraphModel>
      <root>
        <mxCell id="0" />
        <mxCell id="1" parent="0" />
      </root>
    </mxGraphModel>
  </diagram>
</mxfile>
